# xmcd
#
# Track frame offsets:
#	150
#	18837
#	40222
#	66012
#	96162
#	131037
#	150322
#	169287
#	194262
#	213162
#	234097
#	268362
#
# Disc length: 3819 seconds
#
# Revision: 1
# Processed by: cddbd v1.5.2PL0 Copyright (c) Steve Scherf et al.
# Submitted via: audiograbber 1.83.01
#
DISCID=9c0ee90c
DTITLE=Blue Rockit - Takin´ liberty with the Blues 
DYEAR=1985
DGENRE=Blues
TTITLE0=the work song
TTITLE1=she caught the Katy
TTITLE2=cold show
TTITLE3=Hoochie Coochie man
TTITLE4=the walkin´ Blues
TTITLE5=I got my mojo workin
TTITLE6=move it on over 
TTITLE7=I´ m a king bee
TTITLE8=36 - 22 - 36
TTITLE9=Suzy Q
TTITLE10=lil´  red rooster
TTITLE11=room to move
EXTD=
EXTT0=
EXTT1=
EXTT2=
EXTT3=
EXTT4=
EXTT5=
EXTT6=
EXTT7=
EXTT8=
EXTT9=
EXTT10=
EXTT11=
PLAYORDER=
